<?xml version="1.0" standalone="no"?>
<!DOCTYPE svg PUBLIC "-//W3C//DTD SVG 20010904//EN"
 "http://www.w3.org/TR/2001/REC-SVG-20010904/DTD/svg10.dtd">
<svg version="1.0" xmlns="http://www.w3.org/2000/svg"
 width="156.000000pt" height="113.000000pt" viewBox="0 0 156.000000 113.000000"
 preserveAspectRatio="xMidYMid meet">

<g transform="translate(0.000000,113.000000) scale(0.100000,-0.100000)"
fill="#000000" stroke="none">
<path d="M600 921 l-43 -89 33 -166 33 -166 136 0 137 0 33 168 33 168 -22 42
c-12 23 -26 42 -31 42 -5 0 -9 7 -9 15 0 9 -7 29 -15 45 l-16 30 -112 0 -113
0 -44 -89z m172 -68 c2 -22 9 -29 31 -31 15 -2 27 -9 27 -17 0 -8 -12 -15 -27
-17 -27 -3 -28 -5 -31 -75 -2 -56 -6 -73 -17 -73 -12 0 -15 16 -15 75 l0 75
-30 0 c-20 0 -30 5 -30 15 0 10 10 15 30 15 27 0 30 3 30 30 0 39 27 41 32 3z"/>
</g>
</svg>
